<?xml version="1.0" encoding="UTF-8" standalone="no"?><!-- Generator: Gravit.io --><svg xmlns="http://www.w3.org/2000/svg" xmlns:xlink="http://www.w3.org/1999/xlink" style="isolation:isolate" viewBox="0 0 50 50" width="50pt" height="50pt"><defs><clipPath id="_clipPath_vX6naxw6UX9vVpXiR4fwHfjZBlUHHfNb"><rect width="50" height="50"/></clipPath></defs><g clip-path="url(#_clipPath_vX6naxw6UX9vVpXiR4fwHfjZBlUHHfNb)"><path d=" M 3.537 40.211 L 3.537 40.211 L 3.537 40.211 Q 3.879 38.697 4.733 36.842 L 4.733 36.842 L 4.733 36.842 Q 5.588 34.986 6.613 33.18 L 6.613 33.18 L 6.613 33.18 Q 7.639 31.373 8.615 29.737 L 8.615 29.737 L 8.615 29.737 Q 9.592 28.102 10.178 26.979 L 10.178 26.979 L 10.178 26.979 Q 10.471 26.393 11.081 25.196 L 11.081 25.196 L 11.081 25.196 Q 11.691 24 12.448 22.462 L 12.448 22.462 L 12.448 22.462 Q 13.205 20.924 14.06 19.264 L 14.06 19.264 L 14.06 19.264 Q 14.914 17.604 15.671 16.065 L 15.671 16.065 L 15.671 16.065 Q 16.428 14.527 17.038 13.331 L 17.038 13.331 L 17.038 13.331 Q 17.648 12.135 17.941 11.549 L 17.941 11.549 L 17.941 11.549 Q 19.455 9.986 20.456 10.67 L 20.456 10.67 L 20.456 10.67 Q 21.457 11.354 22.238 13.453 L 22.238 13.453 L 22.238 13.453 Q 23.02 15.553 23.654 18.629 L 23.654 18.629 L 23.654 18.629 Q 24.289 21.705 25.021 24.928 L 25.021 24.928 L 25.021 24.928 Q 25.754 28.15 26.682 31.08 L 26.682 31.08 L 26.682 31.08 Q 27.609 34.01 28.928 35.816 L 28.928 35.816 L 28.928 35.816 Q 29.563 36.109 30.466 35.182 L 30.466 35.182 L 30.466 35.182 Q 31.369 34.254 32.443 32.472 L 32.443 32.472 L 32.443 32.472 Q 33.518 30.689 34.689 28.297 L 34.689 28.297 L 34.689 28.297 Q 35.861 25.904 37.058 23.268 L 37.058 23.268 L 37.058 23.268 Q 38.254 20.631 39.377 17.945 L 39.377 17.945 L 39.377 17.945 Q 40.5 15.26 41.477 12.989 L 41.477 12.989 L 41.477 12.989 Q 42.453 10.719 43.161 9.01 L 43.161 9.01 L 43.161 9.01 Q 43.869 7.301 44.26 6.617 L 44.26 6.617 L 44.26 6.617 Q 44.602 5.982 44.968 6.007 L 44.968 6.007 L 44.968 6.007 Q 45.334 6.031 45.578 6.397 L 45.578 6.397 L 45.578 6.397 Q 45.822 6.764 45.944 7.325 L 45.944 7.325 L 45.944 7.325 Q 46.066 7.887 45.92 8.326 L 45.92 8.326 L 45.92 8.326 Q 44.357 12.574 42.99 15.992 L 42.99 15.992 L 42.99 15.992 Q 41.623 19.41 40.183 22.584 L 40.183 22.584 L 40.183 22.584 Q 38.742 25.758 37.106 29.054 L 37.106 29.054 L 37.106 29.054 Q 35.471 32.35 33.371 36.354 L 33.371 36.354 L 33.371 36.354 Q 31.809 38.258 30.344 38.478 L 30.344 38.478 L 30.344 38.478 Q 28.879 38.697 27.316 36.354 L 27.316 36.354 L 27.316 36.354 Q 25.705 33.521 24.777 30.982 L 24.777 30.982 L 24.777 30.982 Q 23.85 28.443 23.19 25.978 L 23.19 25.978 L 23.19 25.978 Q 22.531 23.512 21.994 20.948 L 21.994 20.948 L 21.994 20.948 Q 21.457 18.385 20.676 15.406 L 20.676 15.406 L 20.676 15.406 Q 20.236 15.113 19.211 16.432 L 19.211 16.432 L 19.211 16.432 Q 18.186 17.75 16.843 19.947 L 16.843 19.947 L 16.843 19.947 Q 15.5 22.145 14.035 24.879 L 14.035 24.879 L 14.035 24.879 Q 12.57 27.613 11.252 30.152 L 11.252 30.152 L 11.252 30.152 Q 9.934 32.691 8.908 34.693 L 8.908 34.693 L 8.908 34.693 Q 7.883 36.695 7.443 37.477 L 7.443 37.477 L 7.443 37.477 Q 7.199 37.916 6.833 38.551 L 6.833 38.551 L 6.833 38.551 Q 6.467 39.186 6.101 39.82 L 6.101 39.82 L 6.101 39.82 Q 5.734 40.455 5.466 40.895 L 5.466 40.895 L 5.466 40.895 Q 5.197 41.334 5.197 41.334 L 5.197 41.334 L 3.537 41.334 L 3.537 41.334 Q 3.488 41.236 3.488 40.797 L 3.488 40.797 L 3.488 40.797 Q 3.488 40.357 3.537 40.211 Z " fill="rgb(0,150,136)"/><mask id="_mask_rz6LmioJPi2anvCErfHSNo5XPJl1wiT6"><circle vector-effect="non-scaling-stroke" cx="25" cy="25" r="8" fill="white" stroke="none"/></mask><circle vector-effect="non-scaling-stroke" cx="25" cy="25" r="8" fill="rgb(235,235,235)"/><circle vector-effect="non-scaling-stroke" cx="25" cy="25" r="8" fill="rgb(235,235,235)" mask="url(#_mask_rz6LmioJPi2anvCErfHSNo5XPJl1wiT6)" stroke-width="2" stroke="rgb(0,150,136)" stroke-linejoin="miter" stroke-linecap="square" stroke-miterlimit="3"/></g></svg>